<svg width="24" height="24" viewBox="0 0 24 24" fill="none" xmlns="http://www.w3.org/2000/svg">
<path d="M24 12.2737C24.0011 11.456 23.9305 10.6397 23.7892 9.83379H12.2429V14.4553H18.8561C18.7207 15.1935 18.4343 15.8971 18.014 16.5238C17.5938 17.1505 17.0484 17.6873 16.4108 18.1019V21.1018H20.3576C22.6685 19.0135 24 15.9253 24 12.2737Z" fill="#4285F4"/>
<path d="M12.243 24C15.547 24 18.329 22.9367 20.3577 21.1034L16.4108 18.1035C15.3123 18.8335 13.8975 19.2501 12.243 19.2501C9.04944 19.2501 6.33886 17.1402 5.36958 14.2969H1.30372V17.3885C2.32276 19.3759 3.88536 21.0466 5.81705 22.2141C7.74874 23.3816 9.9735 23.9999 12.243 24Z" fill="#34A853"/>
<path d="M5.36958 14.2971C4.85716 12.8072 4.85716 11.1937 5.36958 9.70386V6.61228H1.30372C0.446459 8.28415 0 10.1293 0 12.0005C0 13.8716 0.446459 15.7168 1.30372 17.3886L5.36958 14.2971Z" fill="#FBBC04"/>
<path d="M12.243 4.75065C13.989 4.7227 15.6761 5.36927 16.9397 6.55061L20.4342 3.1257C18.2183 1.08588 15.2828 -0.0340102 12.243 0.00078729C9.9735 0.000888663 7.74874 0.619195 5.81705 1.78668C3.88536 2.95416 2.32276 4.62486 1.30372 6.61227L5.36958 9.70385C6.33886 6.8606 9.04944 4.75065 12.243 4.75065Z" fill="#EA4335"/>
</svg>
